PathFileType	4	(X/Y/Z)	Patient4_TMGait_0pt7_02_left_34.trc.trc
DataRate	CameraRate	NumFrames	NumMarkers	Units	OrigDataRate	OrigDataStartFrame	OrigNumFrames
85.889570552147	85.889570552147	4	33	mm	85.889570552147	71	       141
Frame#	Time	Sacral			L.Shoulder			Chest			R.Shoulder			Neck			R.ASIS			L.ASIS			R.Thigh.Superior			R.Thigh.Lateral			R.Thigh.Inferior			R.Patella			L.Thigh.Superior			L.Thigh.Lateral			L.Thigh.Inferior			L.Patella			L.Shank.Superior			L.Shank.Lateral			L.Shank.Inferior			R.Shank.Superior			R.Shank.Lateral			R.Shank.Inferior			R.Heel			R.Midfoot.Superior			R.Midfoot.Lateral			R.Toe			L.Heel			L.Midfoot.Lateral			L.Midfoot.Superior			L.Toe			L.Elbow			L.Wrist			R.Elbow			R.Wrist			
		X1	Y1	Z1	X2	Y2	Z2	X3	Y3	Z3	X4	Y4	Z4	X5	Y5	Z5	X6	Y6	Z6	X7	Y7	Z7	X8	Y8	Z8	X9	Y9	Z9	X10	Y10	Z10	X11	Y11	Z11	X12	Y12	Z12	X13	Y13	Z13	X14	Y14	Z14	X15	Y15	Z15	X16	Y16	Z16	X17	Y17	Z17	X18	Y18	Z18	X19	Y19	Z19	X20	Y20	Z20	X21	Y21	Z21	X22	Y22	Z22	X23	Y23	Z23	X24	Y24	Z24	X25	Y25	Z25	X26	Y26	Z26	X27	Y27	Z27	X28	Y28	Z28	X29	Y29	Z29	X30	Y30	Z30	X31	Y31	Z31	X32	Y32	Z32	X33	Y33	Z33	

71	39.685000000000	820.267968013830	1015.043828905476	423.615140822701	1053.668434667942	1427.802425432507	254.018041451723	1136.366423391533	1344.124993596056	421.110910369715	1050.702979924395	1429.901486433078	587.469081813474	1051.247646282312	1485.909429521453	406.750531821962	1033.236816031656	937.587487052293	558.991488045398	1078.209095568733	985.874893656103	294.641945984453	1112.084590950522	780.492559633724	530.698150996578	1080.436608685186	657.922631004195	609.002652146870	1171.389861684481	624.109511463276	529.537529422057	1210.358694737968	536.432907796156	551.577037660987	1043.208016643140	729.337235556090	315.005365439870	932.070223690055	635.834414209131	245.118455312346	988.668459884905	541.125204400090	312.422231250250	973.980983947052	475.250513530115	321.022662115514	940.459006311190	409.707047406805	310.239420756894	839.926017869496	307.421106057050	254.440001134880	871.203739655446	190.943487462435	328.588104327421	1184.950486166673	447.000918445724	563.195318824885	1121.196504902749	341.313713375264	630.521973826936	1180.588912929120	247.184633930691	581.722149552711	1069.283547074444	70.450895060736	559.134034696398	1238.320488225334	129.706614572637	599.328629902393	1152.772677166295	61.468061732115	631.944577241948	1357.972351754470	79.993098837940	624.956037789184	726.527886101797	42.167164429585	362.783047395195	804.290182292407	36.774813524335	286.896059157247	887.283413154452	96.142579010725	317.092881676946	1015.928742671160	39.544726258444	295.299168828330	1067.809371627397	1111.125624288940	83.154942660863	1317.921608137256	1094.708209290049	126.912692870304	931.995035498177	1105.289789282068	708.708355335339	931.791766051447	842.687655072861	711.262045355964	
72	39.696642857143	821.274474597859	1013.091728305623	426.257393283938	1053.340878159436	1426.259521829589	256.152808132838	1136.639484616003	1342.534503903390	422.906558302976	1051.414590454017	1428.269420401757	589.412180229821	1051.427209623144	1484.160892721489	408.670928520613	1034.910078671024	935.183985266310	560.449346544805	1073.831269676044	980.241278536658	294.756328557272	1111.315894989578	775.399538819872	532.149350228182	1077.155821578205	653.198390329353	610.413358731127	1167.329439970372	618.268151773230	530.508423789924	1205.483293700751	532.404080638018	551.540877254005	1040.808361602346	727.445586449074	315.576302252558	927.952100070982	635.429440027635	245.786702636690	983.382222762396	539.857492591320	312.582315242765	968.184222692303	474.161536044256	320.986786955601	934.131909785066	409.052677654216	310.366947432163	832.717661107456	307.496286477542	254.663941574936	863.508436505682	190.687073338512	328.589154459752	1183.041366540747	443.173601126580	563.665916037432	1123.474999937445	335.169262257676	631.505635276824	1185.919581466949	243.184349456045	582.052231274754	1080.869935587297	62.252853600305	560.140242940415	1248.116116577162	127.592812473568	599.099548124428	1165.149236882782	56.571419783801	632.580471927898	1369.863008518313	82.438158967086	624.460736316233	718.301891451987	42.187639654110	362.779215756754	796.078718774118	36.772932960487	286.898110104869	879.056569833923	96.116698682249	317.073459845503	1007.703712300842	39.495638211475	295.268550103879	1070.389850961925	1111.235561417319	83.501495501156	1319.871147431687	1101.725157659279	130.931358989442	924.241337985753	1107.815091573087	711.080526526100	918.772474435293	845.312766978935	712.848669695130	
73	39.708285714286	822.474020754014	1010.883059844056	429.224679193654	1052.798660095621	1424.579318232016	258.436264974544	1136.925278625105	1340.897722842508	424.790788029513	1052.168149007228	1426.510254256878	591.536294751798	1051.536549040905	1482.286226907914	410.774232965391	1036.871790362960	932.594938294487	561.997659723807	1058.083630120286	964.122336144043	291.675013563836	1111.031055836203	770.251719986778	533.758281669375	1074.238208200387	648.428112726801	611.785684009208	1163.730496668579	612.530821004554	531.529099864460	1200.851995910195	528.136434601596	551.551619502237	1038.798773846625	725.488676784787	316.265239954351	924.300402494480	634.888752184357	246.673285228250	978.681305779333	538.493338109640	312.939072634274	963.043428076605	472.865952007874	321.146791416583	928.277551618057	408.195751882587	310.681647834691	825.837391260854	307.558142630952	255.032737024489	855.948244395967	190.337616934262	328.647991682532	1180.857318326248	439.015750548587	564.116786014963	1124.463299926199	329.238410489155	632.022043165331	1189.355950625853	239.079971455664	582.058465428862	1089.167590245266	55.437469596499	560.421776940875	1254.961244163910	125.018707161793	598.432496600318	1173.911555929991	52.207243630624	632.612476239403	1378.139824751886	83.191651672022	623.622932191024	710.059733131924	42.216699166964	362.758175907406	787.868332661874	36.757798591860	286.889857780076	870.832688087638	96.075876392207	317.063276073486	999.498412719799	39.447549941772	295.227739056228	1072.399391055940	1111.034741097484	84.162812632582	1321.089867318413	1107.797814272338	134.956931167902	917.063568104178	1110.206514368066	713.444744024891	906.646005892766	847.817942591152	714.496680527813	
74	39.719928571429	823.828461992033	1008.497967856675	432.482471155132	1052.085243428053	1422.794056574900	260.861027974856	1137.240971197032	1339.264467993892	426.777994215190	1052.957953784515	1424.684980653645	593.848127791441	1051.598821641353	1480.342679753022	413.063636976931	1039.052565217398	929.899383222136	563.656853481673	1028.073451300704	934.983291876148	284.573588963317	1111.266373301044	765.258373043120	535.529922168651	1071.793253988369	643.783977212201	613.078994741592	1160.771228325815	607.141308321338	532.621715035656	1196.672540045474	523.812257706278	551.651572585388	1037.244572743132	723.502992362059	317.113130305556	921.204263946416	634.216322306362	247.806316852191	974.679741133067	537.039176389111	313.522735302960	958.661317390837	471.350558163730	321.532806641097	922.997220131817	407.129400899625	311.198222536568	819.367198220153	307.630631010095	255.559279444838	848.570393737756	189.910526070797	328.763566869832	1178.568951622598	434.681955798738	564.549864225768	1124.283333287176	323.633956853002	632.119743807679	1190.977821400983	234.914414813739	581.777705644544	1094.069885786872	50.021041668291	560.078136112047	1258.894606234347	121.961882101690	597.390914233746	1179.015807374482	48.366075423837	632.142877860124	1382.895573499636	82.130548762485	622.494898245622	701.807274651882	42.312711454247	362.706483581780	779.664915492937	36.745632245291	286.865150196169	862.639573181753	96.022819967218	317.049093329482	991.319129947760	39.399124644542	295.175395742872	1073.793185428588	1110.493724293653	85.173614318699	1321.618681213210	1112.855567307784	138.941348962606	910.620760837048	1112.373340228197	715.788122610291	895.500036752721	850.118115454623	716.165822023720	
